<svg width="1040" height="260" viewBox="0 0 1040 260" fill="none" xmlns="http://www.w3.org/2000/svg">
  <rect width="1040" height="260" rx="44" fill="none"/>
  <path d="M76.944 216L136.784 44H185.84L245.104 216H208.992L196.304 177.552H124.88L112.192 216H76.944ZM133.808 149.312H187.376L160.736 68.32L133.808 149.312Z" fill="white"/>
  <path d="M278.319 216L250.527 90.432H286.063L301.631 177.264L325.919 90.432H359.727L383.727 177.264L399.295 90.432H434.831L406.751 216H368.047L342.047 126.256L316.335 216H278.319Z" fill="white"/>
  <path d="M501.332 218.88C486.772 218.88 474.084 216 463.268 210.24C452.644 204.288 444.388 196.032 438.5 185.472C432.612 174.912 429.668 162.864 429.668 149.328C429.668 135.408 432.484 123.232 438.116 112.8C443.94 102.176 451.94 93.984 462.116 88.224C472.292 82.464 483.812 79.584 496.676 79.584C509.732 79.584 521.06 82.464 530.66 88.224C540.452 93.792 548.068 101.728 553.508 112.032C558.948 122.144 561.668 134 561.668 147.6V157.968H464.916C466.068 167.568 469.908 175.184 476.436 180.816C482.964 186.256 491.476 188.976 501.972 188.976C509.268 188.976 515.828 187.952 521.652 185.904C527.476 183.664 533.236 180.112 538.932 175.248L556.212 199.248C548.788 205.776 540.148 210.752 530.292 214.176C520.628 217.408 510.975 218.88 501.332 218.88ZM464.628 134.064H527.284C525.748 125.232 522.42 118.512 517.3 113.904C512.372 109.104 505.78 106.704 497.524 106.704C489.076 106.704 481.972 109.168 476.212 114.096C470.644 118.832 466.772 125.488 464.628 134.064Z" fill="white"/>
  <path d="M648.643 218.88C637.059 218.88 626.179 216.448 616.003 211.584C605.827 206.528 597.571 199.248 591.235 189.744C585.091 180.24 582.019 168.896 582.019 155.712V35.072H616.547V94.176C621.539 89.696 627.427 86.144 634.211 83.52C641.187 80.896 648.611 79.584 656.483 79.584C668.643 79.584 679.587 82.4 689.315 88.032C699.043 93.472 706.707 101.344 712.307 111.648C717.907 121.76 720.707 133.744 720.707 147.6C720.707 161.648 717.459 173.888 710.963 184.32C704.659 194.56 696.083 202.56 685.235 208.32C674.387 216 662.843 218.88 650.603 218.88H648.643ZM650.027 188.112C656.747 188.112 662.891 186.512 668.459 183.312C674.219 179.92 678.763 175.248 682.091 169.296C685.611 163.152 687.371 156.048 687.371 147.984C687.371 139.92 685.611 132.944 682.091 127.056C678.763 120.976 674.219 116.304 668.459 113.04C662.699 109.648 656.235 107.952 649.067 107.952C643.499 107.952 638.251 109.04 633.323 111.216C628.587 113.392 624.363 116.4 620.651 120.24V175.728C624.235 179.76 628.651 182.96 633.899 185.328C639.339 187.504 644.715 188.432 650.027 188.112Z" fill="white"/>
  <path d="M739.696 216V192.864L804.144 116.64H741.136V82.464H851.856V105.312L787.696 181.536H855.312V216H739.696Z" fill="white"/>
  <path d="M870.304 216V192.864L934.752 116.64H871.744V82.464H982.464V105.312L918.304 181.536H985.92V216H870.304Z" fill="white"/>
  <circle cx="922" cy="130" r="84" stroke="#1DD6E5" stroke-width="12"/>
  <path d="M904.445 83.36C926.79 83.36 946.068 90.908 962.28 106.004C978.492 121.1 986.598 139.05 986.598 159.856C986.598 180.474 978.492 198.33 962.28 213.424C946.068 228.331 926.79 235.784 904.445 235.784C882.1 235.784 862.822 228.331 846.61 213.424C830.399 198.33 822.293 180.474 822.293 159.856C822.293 139.05 830.399 121.1 846.61 106.004C862.822 90.908 882.1 83.36 904.445 83.36ZM904.445 100.792C896.515 100.792 889.151 102.019 882.354 104.471V128.981H862.107C856.442 137.1 853.609 146.058 853.609 155.856C853.609 156.987 853.703 158.871 853.892 161.508H882.354V181.755H857.289C860.497 192.874 866.163 202.29 874.287 210.003H882.354V181.755H902.6V217.22C903.731 217.409 905.613 217.503 908.251 217.503C917.69 217.503 926.467 214.86 934.583 209.569L922.416 197.118L936.847 182.687L950.693 196.534C958.811 186.543 962.87 174.984 962.87 161.855H926.126V141.609H959.475C956.647 127.158 949.94 115.034 939.356 105.24H926.126V125.486H905.88V100.792H904.445Z" fill="#1DD6E5"/>
</svg>
