<svg width="192" height="192" viewBox="0 0 192 192" fill="none" xmlns="http://www.w3.org/2000/svg">
  <circle cx="96" cy="96" r="72" stroke="#1DD6E5" stroke-width="6"/>
  <g stroke="#1DD6E5" stroke-width="6" stroke-linecap="round" stroke-linejoin="round">
    <path d="M58 70C66 62 80 57 96 57C112 57 126 62 134 70"/>
    <path d="M55 96H129"/>
    <path d="M59 122H104"/>
    <path d="M96 58C88 66 83 80 83 96C83 112 88 126 96 134"/>
    <path d="M109 61C116 69 121 81 122 96"/>
    <path d="M63 70C57 77 53 86 52 96C51 106 54 116 60 124"/>
  </g>
  <path
    d="M101 95L139 106L123 114L131 145L116 151L108 120L92 136L101 95Z"
    fill="#1DD6E5"
    stroke="#1DD6E5"
    stroke-width="3"
    stroke-linejoin="round"
  />
</svg>
